<svg xmlns="http://www.w3.org/2000/svg" xmlns:xlink="http://www.w3.org/1999/xlink" xml:space="preserve" style="shape-rendering:geometricPrecision;text-rendering:geometricPrecision;image-rendering:optimizeQuality;" viewBox="0 0 6.82666 8.533325000000001" x="0px" y="0px" fill-rule="evenodd" clip-rule="evenodd"><defs><style type="text/css">
   
    .fil1 {fill:none}
    .fil0 {fill:black}
   
  </style></defs><g><g><path class="fil0" d="M2.8473 4.57976l0 0zm1.18707 8.26772e-005l0 0zm0.00243701 1.89715l-1.19073 0c-0.0388622,0 -0.0701614,-0.0313819 -0.0701614,-0.0701299l3.93701e-006 -1.7046c-0.0674843,-0.0366417 -0.174303,-0.148984 -0.318638,-0.49361 -0.113268,-0.270555 -0.200362,-0.571965 -0.216685,-0.750024 -0.00194094,-0.0206772 -0.00280315,-0.0399134 -0.00280315,-0.057252 1.1811e-005,-0.0155472 0.00499606,-0.582157 0.00524016,-0.606272 0.000374016,-0.0385276 0.0316693,-0.0695276 0.0701575,-0.0695276 0.000251969,0 0.000366142,0 0.000610236,0 0.0387362,0.000334646 0.0699134,0.0320472 0.0695472,0.0707953 -0.0018189,0.203945 -0.00524016,0.592913 -0.00524016,0.605004 1.1811e-005,0.0130591 0.000732283,0.0280157 0.00219291,0.044437 0.0145079,0.157803 0.0965906,0.442492 0.199634,0.69228 0.142024,0.344134 0.24226,0.436071 0.266988,0.441598 0.0383701,0.000452756 0.0693031,0.0317087 0.0693031,0.0701496l7.87402e-006 1.68684 1.05041 0 0 -1.68684c0,-0.0381772 0.0304409,-0.0691929 0.0683189,-0.0701299 0.0255866,-0.00597244 0.117661,-0.0773937 0.246039,-0.264358 0.116205,-0.169193 0.204016,-0.349496 0.234953,-0.482307 0.00877953,-0.0377559 0.0464055,-0.0612165 0.0841654,-0.0524488 0.0377598,0.00877165 0.0612677,0.0464803 0.0524961,0.0842283 -0.0357992,0.153764 -0.135201,0.357232 -0.265768,0.54422 -0.0790394,0.113004 -0.184776,0.243366 -0.279902,0.291673l1.1811e-005 1.70615c0,0.0387244 -0.031437,0.0701457 -0.0701575,0.0701299z"/><path class="fil0" d="M2.60454 3.15716c-0.199382,0 -0.361504,-0.162114 -0.361504,-0.361421l3.93701e-006 -0.64498c0,-0.083311 0.0678386,-0.151094 0.15115,-0.151094l0.420579 -1.5748e-005c0.083437,0 0.151157,0.067811 0.151157,0.15113 7.87402e-006,0.0387323 -0.0314252,0.0701496 -0.0701575,0.0701496 -0.0387244,-1.1811e-005 -0.0701575,-0.0314016 -0.0701575,-0.0701496 7.87402e-006,-0.00577165 -0.00499606,-0.0108031 -0.0108425,-0.0108031l-0.420575 -1.1811e-005c-0.00584646,0 -0.0108425,0.00505906 -0.0108425,0.010815l3.93701e-006 0.644961c0,0.121929 0.0991417,0.221146 0.221185,0.221146 0.121929,-1.1811e-005 0.221071,-0.0992087 0.221071,-0.221146 7.87402e-006,-0.038748 0.0314252,-0.0701575 0.0701575,-0.0701575 0.0387323,0 0.0701575,0.0314173 0.0701575,0.0701575 7.87402e-006,0.199295 -0.162118,0.361445 -0.361386,0.361421z"/><path class="fil0" d="M2.97678 2.13996c-0.00572835,0 -0.0108504,0.00505906 -0.0108504,0.010815l7.87402e-006 0.820657c0,0.121929 0.0992559,0.221146 0.221181,0.221146 0.121933,-1.5748e-005 0.221067,-0.0991929 0.221067,-0.22113l7.87402e-006 -0.820693c0,-0.00575197 -0.005,-0.0107835 -0.0107244,-0.0107835l-0.420689 -1.1811e-005zm0.210346 1.19292c-0.199386,0 -0.361512,-0.162126 -0.361512,-0.361429l7.87402e-006 -0.820693c0,-0.083311 0.0678346,-0.151094 0.151146,-0.151094l0.420709 -1.5748e-005c0.083311,0 0.151024,0.067811 0.151024,0.15113l7.87402e-006 0.820657c0,0.199319 -0.162122,0.361461 -0.361382,0.361445z"/><path class="fil0" d="M4.06093 2.63544c-0.0387402,0 -0.0701693,-0.0313819 -0.0701693,-0.0701299l1.1811e-005 -0.414559c0,-0.00575197 -0.00500394,-0.0107835 -0.0107283,-0.0107835l-0.420701 -1.1811e-005c-0.00572835,0 -0.0108425,0.00505906 -0.0108425,0.010815 7.87402e-006,0.0387323 -0.0314213,0.0701496 -0.0701575,0.0701496 -0.0387165,-1.1811e-005 -0.0701575,-0.0314016 -0.0701575,-0.0701496 7.87402e-006,-0.0833307 0.0678425,-0.151114 0.151154,-0.151114l0.420705 -1.5748e-005c0.083311,0 0.151031,0.067811 0.151031,0.15113l7.87402e-006 0.414539c0,0.0387244 -0.0314331,0.0701457 -0.0701535,0.0701299zm-0.291236 0.90089c-0.199386,0 -0.361508,-0.16215 -0.361508,-0.361453l7.87402e-006 -0.184949c0,-0.038752 0.0314173,-0.0701496 0.0701496,-0.0701496 0.0387402,-7.87402e-006 0.0701575,0.0314134 0.0701575,0.0701575l7.87402e-006 0.184921c0,0.121953 0.0992598,0.221157 0.221185,0.221157 0.121925,0 0.221067,-0.0992047 0.221067,-0.221138l1.1811e-005 -0.167685c0,-0.038748 0.0314134,-0.0701417 0.0701457,-0.0701417 0.0387362,-1.5748e-005 0.0701575,0.0314016 0.0701575,0.0701575l7.87402e-006 0.16765c0,0.199319 -0.162126,0.361472 -0.36139,0.361472z"/><path class="fil0" d="M4.64349 2.76329c-0.0387205,0 -0.0701614,-0.0313976 -0.0701614,-0.0701457l3.93701e-006 -0.54239c0,-0.00575197 -0.00499606,-0.0107835 -0.0107205,-0.0107835l-0.420693 -1.1811e-005c-0.00572835,0 -0.0108465,0.00505906 -0.0108465,0.010815 7.87402e-006,0.0387323 -0.0314252,0.0701496 -0.0701575,0.0701496 -0.0387283,-1.1811e-005 -0.0701575,-0.0314016 -0.0701575,-0.0701496 1.1811e-005,-0.0833307 0.0678425,-0.151114 0.151157,-0.151114l0.420705 -1.5748e-005c0.083311,0 0.151028,0.067811 0.151028,0.15113l0 0.542358c0,0.038752 -0.0313071,0.0701693 -0.0701575,0.0701575z"/><path class="fil0" d="M4.58418 3.91908c-0.0124173,0 -0.0250945,-0.0033189 -0.0365433,-0.010311 -0.033,-0.020248 -0.0434843,-0.0634331 -0.0231417,-0.0964764 0.0605472,-0.0989173 0.119122,-0.152067 0.181114,-0.208366 0.0755315,-0.0685748 0.161024,-0.146248 0.279898,-0.337327 0.000622047,-0.000807087 0.00109843,-0.00159843 0.00158661,-0.00237795 0.0382559,-0.0561969 0.052374,-0.104965 0.0432402,-0.149169 -0.0169213,-0.0823661 -0.114004,-0.151311 -0.213398,-0.214831 -0.14213,-0.0585472 -0.257118,-0.116563 -0.349689,-0.163299 -0.283909,-0.143378 -0.366256,-0.184941 -0.586591,0.0510472l0.531909 0.390047c0.0299685,0.0219528 0.0376299,0.0634646 0.0174134,0.0946614l-0.230201 0.356398c-0.0210748,0.0325591 -0.064437,0.0418976 -0.0969567,0.020878 -0.0325197,-0.0210433 -0.0419016,-0.0644449 -0.0209528,-0.097l0.194398 -0.30089 -0.541157 -0.396827c-0.0158386,-0.011622 -0.0260709,-0.0293268 -0.0282638,-0.0488504 -0.0021811,-0.0195236 0.00389764,-0.039063 0.0169291,-0.0538622 0.160173,-0.183508 0.27661,-0.262469 0.401945,-0.272614 0.124004,-0.0100709 0.241772,0.049437 0.404862,0.131752 0.0963465,0.0486693 0.205602,0.103846 0.345429,0.161118 0.00390945,0.00158268 0.00755118,0.00350787 0.0110827,0.00575197 0.0995157,0.0634134 0.249937,0.159256 0.28063,0.308213 0.0169409,0.0817598 -0.00450394,0.167626 -0.0637008,0.255165 -0.12898,0.206815 -0.226063,0.295024 -0.304138,0.365898 -0.0590709,0.0536102 -0.105724,0.0959921 -0.155783,0.177772 -0.0132677,0.0216063 -0.0362953,0.0335197 -0.0599213,0.0335z"/><path class="fil0" d="M3.3853 4.46041c-0.0269134,0 -0.052626,-0.0155394 -0.0641969,-0.0416772 -0.169051,-0.380528 0.387571,-0.789406 0.411323,-0.80661 0.031437,-0.0227323 0.0752717,-0.0157165 0.0980512,0.0156575 0.0226535,0.0313819 0.0157087,0.075248 -0.0157165,0.0979764 -0.136283,0.0989921 -0.467594,0.406134 -0.365402,0.635984 0.0157165,0.0353898 -0.000244094,0.076874 -0.035685,0.0926063 -0.00924803,0.00411417 -0.0188819,0.00606693 -0.028374,0.00606299z"/><path class="fil0" d="M1.99834 1.78076c-0.0242402,0 -0.0478701,-0.0125827 -0.0609016,-0.0350945l-0.645299 -1.11784c-0.0193622,-0.0335748 -0.00791732,-0.0764685 0.0255748,-0.0958386 0.0336181,-0.019378 0.0764921,-0.00787795 0.0958583,0.0256811l0.645433 1.11783c0.0193583,0.0335748 0.00790945,0.0764843 -0.0257087,0.0958622 -0.0109646,0.00635827 -0.0231457,0.00940157 -0.0349567,0.00940157z"/><path class="fil0" d="M4.82827 1.78076c-0.0118228,0 -0.0238819,-0.00301969 -0.0349646,-0.00940157 -0.0336181,-0.0194016 -0.0450669,-0.0622874 -0.0257008,-0.0958465l0.645425 -1.11784c0.019374,-0.0335748 0.0622402,-0.0450709 0.0958543,-0.0256811 0.0334961,0.0193465 0.0450669,0.0622795 0.0255787,0.0958386l-0.645299 1.11783c-0.0130276,0.0225 -0.0366654,0.0351063 -0.0608937,0.0351063z"/><path class="fil0" d="M3.4133 1.78073c-0.0387244,0 -0.0701575,-0.0313858 -0.0701575,-0.0701417l0 -1.2908c0,-0.0387244 0.0314252,-0.0701299 0.0701575,-0.0701299 0.0387362,0 0.0701575,0.0314055 0.0701575,0.0701535l0 1.29076c0,0.038752 -0.0314252,0.0701693 -0.0701575,0.0701575z"/></g></g><rect class="fil1" width="6.82666" height="6.82666"/><text x="0" y="21.82666" fill="#000000" font-size="5px" font-weight="bold" font-family="'Helvetica Neue', Helvetica, Arial-Unicode, Arial, Sans-serif">Created by Circlon Tech</text><text x="0" y="26.82666" fill="#000000" font-size="5px" font-weight="bold" font-family="'Helvetica Neue', Helvetica, Arial-Unicode, Arial, Sans-serif">from the Noun Project</text></svg>