<svg xmlns="http://www.w3.org/2000/svg" xmlns:xlink="http://www.w3.org/1999/xlink" xml:space="preserve" style="shape-rendering:geometricPrecision;text-rendering:geometricPrecision;image-rendering:optimizeQuality;" viewBox="0 0 6.82666 8.533325000000001" x="0px" y="0px" fill-rule="evenodd" clip-rule="evenodd"><defs><style type="text/css">
   
    .fil1 {fill:none}
    .fil0 {fill:black}
   
  </style></defs><g><g><path class="fil0" d="M1.65442 6.3367l3.51781 0 0 -0.981583 -3.51781 0 0 0.981583zm3.58797 0.140315l-3.65812 0c-0.038752,0 -0.0701575,-0.0314094 -0.0701575,-0.0701457l0 -1.12191c0,-0.0387402 0.0314055,-0.0701457 0.0701575,-0.0701457l3.65812 0c0.0387402,0 0.0701535,0.0314134 0.0701535,0.0701496l3.93701e-006 1.12189c0,0.0387402 -0.0314173,0.0701693 -0.0701575,0.0701575z"/><path class="fil0" d="M3.41331 6.47702c-0.038748,0 -0.0701575,-0.0314094 -0.0701575,-0.0701457l0 -1.12191c0,-0.0387402 0.0314094,-0.0701339 0.0701575,-0.0701339 0.0387441,0 0.0701575,0.0314016 0.0701575,0.0701378l0 1.12189c0,0.0387402 -0.0314134,0.0701693 -0.0701575,0.0701575z"/><path class="fil0" d="M4.32784 5.34257c-0.0387402,0 -0.0701535,-0.0314134 -0.0701535,-0.0701457l0 -1.05175 -1.68874 0 0 1.05174c0,0.0387402 -0.0314173,0.0701693 -0.0701614,0.0701693 -0.0387441,-1.1811e-005 -0.0701575,-0.0314252 -0.0701575,-0.0701575l3.93701e-006 -1.1219c0,-0.0387638 0.0314094,-0.0701535 0.0701535,-0.0701535l1.82906 0c0.038748,0 0.0701575,0.0314016 0.0701575,0.0701535l0 1.12189c0,0.0387402 -0.0314094,0.0701693 -0.0701575,0.0701575z"/><path class="fil0" d="M2.7657 0.489945l0 1.31181c0,0.358339 0.291531,0.649862 0.649858,0.649862 0.358339,0 0.64987,-0.291516 0.64987,-0.649858l0 -1.31182 -1.29973 0zm0.64987 2.10199c-0.435705,0 -0.790169,-0.354465 -0.790169,-0.790173l0 -1.38196c0,-0.038752 0.0313976,-0.0701575 0.0701575,-0.0701575l1.44003 0c0.0387441,0 0.0701575,0.0314134 0.0701575,0.0701575l0 1.38196c0,0.435705 -0.354469,0.790177 -0.790173,0.790177z"/><path class="fil0" d="M3.24137 3.10291c-0.0387598,0 -0.0701614,-0.0313898 -0.0701614,-0.0701339l3.93701e-006 -0.53248c0,-0.038748 0.0313976,-0.0701575 0.0701535,-0.0701575 0.0387441,0 0.0701457,0.0314173 0.0701457,0.0701575l0 0.532472c0,0.038752 -0.0314016,0.0701535 -0.0701417,0.0701417zm0.348398 0c-0.0387559,0 -0.0701575,-0.0313898 -0.0701575,-0.0701339l0 -0.53248c0,-0.038748 0.0314016,-0.0701575 0.0701575,-0.0701575 0.0387441,0 0.0701417,0.0314173 0.0701417,0.0701575l3.93701e-006 0.532472c0,0.038752 -0.0314016,0.0701535 -0.0701457,0.0701417z"/><path class="fil0" d="M3.7838 3.52389c-0.0131063,0 -0.026374,-0.00366142 -0.038189,-0.0113504 -0.0324803,-0.021126 -0.0416772,-0.0645787 -0.0205591,-0.0970591 0.0213386,-0.0328268 0.0326181,-0.0707953 0.0326181,-0.109819 3.93701e-006,-0.111803 -0.0909606,-0.202748 -0.202748,-0.202748l-0.278705 -1.1811e-005c-0.111803,0 -0.202764,0.0909724 -0.202764,0.20276 0,0.0390236 0.0112795,0.0770039 0.0326299,0.109819 0.021122,0.0324803 0.0119094,0.0759409 -0.0205709,0.0970591 -0.0324961,0.0211339 -0.0759449,0.0119134 -0.097063,-0.0205591 -0.036189,-0.0556496 -0.055311,-0.120071 -0.055311,-0.186319 3.93701e-006,-0.189165 0.153906,-0.343051 0.343075,-0.343051l0.278709 -7.87402e-006c0.189157,0 0.343063,0.153902 0.343063,0.343059 0,0.0662362 -0.019122,0.130677 -0.055311,0.186319 -0.0134331,0.0206535 -0.0359291,0.0319094 -0.058874,0.0319094z"/><path class="fil0" d="M4.13103 1.95234c-0.0149094,0 -0.0299291,-0.00472047 -0.0426575,-0.0144882 -0.0307402,-0.0236063 -0.0365394,-0.0676378 -0.0129488,-0.0983819 0.647945,-0.844217 0.572551,-1.02052 0.550858,-1.04729 -0.0545039,-0.0672953 -0.302429,0.0015315 -0.460441,0.0770512 -0.0349567,0.016685 -0.0768465,0.00190945 -0.0935591,-0.0330472 -0.0167087,-0.0349646 -0.00190945,-0.0768425 0.0330472,-0.0935551 0.0796063,-0.038063 0.484157,-0.21874 0.629965,-0.0387835 0.0680669,0.0839764 0.0602323,0.21776 -0.0239213,0.408972 -0.0880354,0.199961 -0.264539,0.473209 -0.524634,0.812083 -0.0138228,0.0179921 -0.0346417,0.0274409 -0.0557087,0.027437z"/><path class="fil0" d="M2.6956 1.95234c-0.0210709,0 -0.0419016,-0.00943307 -0.0557126,-0.027437 -0.260091,-0.338878 -0.436594,-0.612098 -0.524622,-0.812083 -0.0841654,-0.191217 -0.0919843,-0.324988 -0.0239331,-0.408972 0.14587,-0.179965 0.55037,0.000744094 0.62998,0.0387835 0.0349567,0.0167047 0.0497559,0.0585984 0.0330433,0.0935551 -0.0167087,0.0349646 -0.0585945,0.0497795 -0.0935551,0.0330472 -0.158157,-0.0754094 -0.406154,-0.144102 -0.460469,-0.0770276 -0.0216654,0.0267756 -0.0970157,0.203126 0.55087,1.04726 0.0235945,0.0307323 0.0177953,0.0747756 -0.0129488,0.0983819 -0.0127244,0.00975984 -0.0277441,0.0144921 -0.0426535,0.0144882z"/><path class="fil0" d="M4.17041 4.22067c-0.0387402,0 -0.0701417,-0.0313976 -0.0701417,-0.0701457l0 -0.626646 -1.36942 0 0 0.626646c0,0.0387362 -0.0313976,0.0701457 -0.0701417,0.0701457 -0.038748,0 -0.0701575,-0.0313976 -0.0701575,-0.0701457l0 -0.696787c0,-0.0387677 0.0314094,-0.0701575 0.0701575,-0.0701575l1.5097 0c0.0387598,0 0.0701575,0.0314016 0.0701575,0.0701575l0 0.696787c0,0.0387362 -0.0314016,0.0701457 -0.0701575,0.0701457z"/><path class="fil0" d="M3.41331 2.20496c-0.038748,0 -0.0701575,-0.0314094 -0.0701575,-0.0701575l0 -0.707217c0,-0.0387402 0.0314094,-0.0701378 0.0701575,-0.0701378 0.0387441,-3.93701e-006 0.0701575,0.0313976 0.0701575,0.0701457l0 0.707209c0,0.0387362 -0.0314134,0.0701575 -0.0701575,0.0701575z"/></g></g><rect class="fil1" width="6.82666" height="6.82666"/><text x="0" y="21.82666" fill="#000000" font-size="5px" font-weight="bold" font-family="'Helvetica Neue', Helvetica, Arial-Unicode, Arial, Sans-serif">Created by Circlon Tech</text><text x="0" y="26.82666" fill="#000000" font-size="5px" font-weight="bold" font-family="'Helvetica Neue', Helvetica, Arial-Unicode, Arial, Sans-serif">from the Noun Project</text></svg>