<svg xmlns="http://www.w3.org/2000/svg" xmlns:xlink="http://www.w3.org/1999/xlink" xml:space="preserve" style="shape-rendering:geometricPrecision;text-rendering:geometricPrecision;image-rendering:optimizeQuality;" viewBox="0 0 6.82666 8.533325000000001" x="0px" y="0px" fill-rule="evenodd" clip-rule="evenodd"><defs><style type="text/css">
   
    .fil1 {fill:none}
    .fil0 {fill:black}
   
  </style></defs><g><g><path class="fil0" d="M3.41339 1.38019c-0.0375197,0 -0.0680906,0.0305787 -0.0680906,0.0680945l1.5748e-005 2.00398c0,0.0376417 0.0305551,0.0680945 0.0680748,0.0680945 0.0375197,-3.93701e-006 0.0679606,-0.0304488 0.0679606,-0.0680866l7.87402e-006 -2.004c0,-0.0375157 -0.0304606,-0.0680787 -0.0679685,-0.0680827zm0 2.28048c-0.114965,0 -0.208406,-0.0934173 -0.208406,-0.208398l1.5748e-005 -2.004c0,-0.114854 0.0934094,-0.20839 0.20839,-0.20839 0.114858,-7.87402e-006 0.208276,0.0935433 0.208276,0.208402l3.93701e-006 2.00398c0,0.11498 -0.0934252,0.208409 -0.20828,0.208406z"/><path class="fil0" d="M3.41339 0.720768c0.0191299,0 0.0375079,0.00791732 0.0507874,0.0218031l0.474433 0.49865c0.0257047,0.0270315 0.0686772,0.0281378 0.0957165,0.00244094 0.0130551,-0.0125551 0.0205866,-0.0293543 0.0209488,-0.0473819 0.000492126,-0.0181496 -0.00608661,-0.0353228 -0.0186339,-0.0483543l-0.57428 -0.60365c-0.00109449,-0.00121654 -0.00220472,-0.00242913 -0.00329921,-0.00376772 -0.0260512,-0.0237598 -0.066626,-0.0236299 -0.0925669,0.00109449 -0.00204724,0.00193701 -0.00401969,0.00401575 -0.00572441,0.00620866 -0.00109449,0.00120472 -0.00219291,0.00243701 -0.00329134,0.00365748l-0.567445 0.596449c-0.0124449,0.0130315 -0.0191496,0.0302126 -0.0186575,0.0483622 0.000484252,0.0180276 0.00791339,0.0348346 0.0210709,0.0473819 0.0270433,0.025685 0.0699134,0.0246024 0.0957323,-0.00243307l0.474319 -0.498661c0.0132638,-0.0138819 0.0316417,-0.0217953 0.0508898,-0.0217992zm0.574303 0.681717c-0.0550551,0 -0.110004,-0.0216732 -0.150803,-0.0645512l-0.4235 -0.445185 -0.42363 0.445181c-0.0790354,0.0830669 -0.210957,0.0863622 -0.294024,0.00731102 -0.0402913,-0.038248 -0.0632126,-0.0900118 -0.0645551,-0.145547 -0.00144094,-0.0555433 0.0188819,-0.108283 0.0572441,-0.148476l0.565768 -0.594882c0.00488189,-0.00572835 0.0101102,-0.0112008 0.0155906,-0.0163189 0.0832087,-0.0791772 0.215343,-0.075878 0.294516,0.00731102 0.0017126,0.00170079 0.00316535,0.0035315 0.00462598,0.00535827l0.569445 0.59852c0.0382283,0.0402008 0.0585591,0.0929449 0.0572205,0.148488 -0.00131496,0.0555315 -0.0243583,0.107303 -0.0645551,0.145547 -0.040189,0.0382362 -0.0918346,0.057248 -0.143343,0.0572441z"/><path class="fil0" d="M1.11612 3.97698c0.0270197,0.0257087 0.0700118,0.0246181 0.0957165,-0.00242126 0.0257165,-0.0270512 0.0246024,-0.0699173 -0.00244094,-0.0957362l-0.49972 -0.47539c-0.0138937,-0.0132756 -0.0218268,-0.0316693 -0.0218268,-0.0507913 1.1811e-005,-0.0192441 0.00791732,-0.0376339 0.0218031,-0.0509134l0.499756 -0.475394c0.0270512,-0.0258189 0.028126,-0.068689 0.00242913,-0.0957283 -0.0124055,-0.0131654 -0.0293543,-0.0205866 -0.0473819,-0.0210709 -0.0181339,-0.000496063 -0.0352047,0.00620866 -0.0483583,0.0186339l-0.597543 0.568437c-0.00120472,0.00122047 -0.00244882,0.00232283 -0.0037874,0.00341732 -0.00205118,0.00169291 -0.0041378,0.00365354 -0.00596457,0.0056063 -0.0125276,0.0132717 -0.0192441,0.0304488 -0.0187598,0.0485984 0.000393701,0.0165512 0.00657874,0.0320315 0.0175394,0.0440906 0.00135039,0.00108661 0.00255512,0.00219291 0.00377559,0.00329134l0.604764 0.57537zm0.0466457 0.158827c-0.0515236,0 -0.103181,-0.0188622 -0.143378,-0.0571102l-0.599606 -0.57052c-0.00183465,-0.0014685 -0.00367717,-0.00291732 -0.00537795,-0.00462205 -0.0403071,-0.038378 -0.0633386,-0.0901339 -0.0646732,-0.145795 -0.00133858,-0.0556693 0.019,-0.108528 0.0573622,-0.148843 0.00512598,-0.00536614 0.0106024,-0.0105945 0.0164449,-0.0154724l0.595874 -0.566866c0.0401732,-0.0383661 0.0930276,-0.0584567 0.148575,-0.0572402 0.055563,0.00133465 0.107185,0.0242402 0.145547,0.0645551 0.0789409,0.0830669 0.0756417,0.21498 -0.0074252,0.294028l-0.44628 0.424717 0.446295 0.424602c0.083063,0.0790394 0.0863386,0.210961 0.00740945,0.294028 -0.0409016,0.0429882 -0.0958543,0.0645551 -0.150768,0.0645394z"/><path class="fil0" d="M1.43378 3.30148c-0.0375197,0 -0.0679882,0.0305748 -0.0679882,0.0680906 2.3622e-005,0.0375039 0.0304488,0.0680866 0.0679646,0.0680866l0.841307 -1.5748e-005c0.182929,0 0.355386,0.071752 0.485713,0.202083 0.130217,0.130315 0.201949,0.302795 0.201949,0.485618l1.5748e-005 2.11031c0,0.0375197 0.0305551,0.0680984 0.0680669,0.0680984 0.0375276,-7.87402e-006 0.0680866,-0.0305748 0.0680866,-0.0680906l2.3622e-005 -2.11033c0,-0.219244 -0.0858937,-0.425811 -0.241917,-0.581835 -0.156142,-0.156039 -0.36272,-0.242024 -0.581961,-0.242024l-0.84126 0zm1.59704 3.14246c-0.114858,0 -0.208283,-0.0934134 -0.208283,-0.208272l3.93701e-006 -2.11033c0,-0.145425 -0.057248,-0.282571 -0.161024,-0.386472 -0.103768,-0.10378 -0.241047,-0.160894 -0.386472,-0.160894l-0.84126 -1.5748e-005c-0.114854,0 -0.208303,-0.0935315 -0.208303,-0.208386 2.3622e-005,-0.11487 0.0934252,-0.208402 0.20828,-0.208402l0.841307 0c0.256728,0 0.498504,0.100606 0.681083,0.283063 0.182591,0.182575 0.283063,0.424476 0.283063,0.68111l2.3622e-005 2.11031c0,0.114858 -0.0934449,0.208287 -0.208417,0.20828z"/><path class="fil0" d="M5.56892 3.82802l0.000114173 0 -0.000114173 0zm0.095126 -1.11848c-0.000606299,0 -0.00123622,0 -0.00184646,0 -0.0180236,0.000476378 -0.0348346,0.00791339 -0.0472598,0.0210709 -0.0258189,0.0270354 -0.0247244,0.0699134 0.00231496,0.0957362l0.499772 0.475374c0.0138661,0.0132795 0.0217795,0.0316811 0.0217795,0.0509252 7.87402e-006,0.0191102 -0.00792126,0.0375157 -0.0218031,0.0507953l-0.499736 0.475378c-0.0130433,0.0125394 -0.0205945,0.0293622 -0.0209606,0.0473898 -0.000472441,0.0181378 0.00609055,0.0353189 0.0186339,0.0483543 0.0257008,0.0270315 0.0685748,0.0281339 0.0956142,0.00243701l0.604748 -0.575398c0.00123228,-0.00109843 0.00242913,-0.0021811 0.00376772,-0.00327953 0.0109764,-0.0120669 0.0171732,-0.0275276 0.0176654,-0.0439685 0.00038189,-0.0182795 -0.00621654,-0.0354449 -0.0187598,-0.0485984 -0.00193307,-0.0020748 -0.00402362,-0.00402362 -0.00609055,-0.00572835 -0.00132283,-0.00109843 -0.00255906,-0.00218898 -0.00377559,-0.00340945l-0.597555 -0.568445c-0.0126614,-0.0120591 -0.0291102,-0.0186339 -0.0465079,-0.0186339zm0 1.42627c-0.0550551,0 -0.110004,-0.0215433 -0.150811,-0.0645394 -0.0383425,-0.0402008 -0.0585827,-0.0929331 -0.0572441,-0.148476 0.0013622,-0.0555394 0.0243583,-0.107307 0.0645512,-0.145551l0.446303 -0.424602 -0.446295 -0.424724c-0.083063,-0.0790394 -0.0863622,-0.210949 -0.00731496,-0.29402 0.0382598,-0.0403268 0.0900118,-0.0632126 0.145551,-0.0645551 0.0557953,-0.00121654 0.108283,0.0188858 0.148476,0.057248l0.59598 0.566854c0.00572835,0.00487795 0.0111969,0.0101181 0.016437,0.0155984 0.0382677,0.040185 0.0587047,0.0930591 0.0572402,0.14872 -0.00132677,0.0556496 -0.0243583,0.107429 -0.0646693,0.145795 -0.00168504,0.00170079 -0.00353543,0.00316535 -0.00535827,0.00462992l-0.59963 0.570512c-0.0401732,0.038122 -0.0917165,0.057126 -0.143217,0.0571102z"/><path class="fil0" d="M4.55164 3.30148c-0.21924,0 -0.425839,0.0859921 -0.581866,0.242024 -0.156016,0.156012 -0.242016,0.36272 -0.242016,0.581839l0 2.11031c0,0.0375197 0.0305709,0.0680984 0.0680866,0.0680984 0.0375315,-7.87402e-006 0.0680866,-0.0305748 0.0680866,-0.0680906l3.93701e-006 -2.11033c0,-0.182823 0.0717362,-0.355287 0.202063,-0.485614 0.130335,-0.130331 0.302795,-0.202067 0.485618,-0.202067l0.84128 -1.5748e-005c0.0375197,0 0.0680866,-0.0305591 0.0680866,-0.0680709 1.5748e-005,-0.0375197 -0.0305748,-0.0680906 -0.0680866,-0.0680906l-0.841256 0zm-0.75578 3.14246c-0.114854,0 -0.208417,-0.0934134 -0.208417,-0.208272l0 -2.11033c0,-0.256638 0.100606,-0.498528 0.283063,-0.681106 0.182606,-0.182461 0.424476,-0.283063 0.68111,-0.283063l0.84128 0c0.114858,0 0.208402,0.0935394 0.208402,0.208402 1.5748e-005,0.114854 -0.0935433,0.208402 -0.208402,0.208402l-0.841256 -1.5748e-005c-0.145437,0 -0.282598,0.0571378 -0.386496,0.160909 -0.103756,0.103898 -0.160898,0.241047 -0.160898,0.386476l0 2.11031c0,0.114858 -0.0935433,0.208287 -0.208386,0.20828z"/></g></g><rect class="fil1" width="6.82666" height="6.82666"/><text x="0" y="21.82666" fill="#000000" font-size="5px" font-weight="bold" font-family="'Helvetica Neue', Helvetica, Arial-Unicode, Arial, Sans-serif">Created by Circlon Tech</text><text x="0" y="26.82666" fill="#000000" font-size="5px" font-weight="bold" font-family="'Helvetica Neue', Helvetica, Arial-Unicode, Arial, Sans-serif">from the Noun Project</text></svg>